<svg xmlns="http://www.w3.org/2000/svg" viewBox="0 0 546.14 574.46"><defs><style>.cls-1,.cls-11,.cls-13{fill:#fff;}.cls-1,.cls-10,.cls-13,.cls-14,.cls-15,.cls-16,.cls-17,.cls-18,.cls-19,.cls-20,.cls-5,.cls-6,.cls-7,.cls-8,.cls-9{stroke:#231f20;stroke-miterlimit:10;}.cls-1{stroke-width:2px;}.cls-2{font-size:72px;}.cls-12,.cls-2,.cls-21,.cls-3,.cls-7{fill:#231f20;}.cls-2,.cls-3{font-family:Cochin-Bold, Cochin;font-weight:700;}.cls-3{font-size:100px;letter-spacing:0.1em;}.cls-4{letter-spacing:0.03em;}.cls-17,.cls-5{fill:#00aeef;}.cls-5,.cls-7,.cls-8,.cls-9{stroke-width:3px;}.cls-10,.cls-14,.cls-19,.cls-20,.cls-6,.cls-8{fill:none;}.cls-6{stroke-width:10px;}.cls-9{fill:#ffde17;}.cls-10{stroke-width:8px;}.cls-15{fill:#cda349;}.cls-16{fill:#fbcc34;}.cls-18{fill:#8b5e3c;}.cls-19{stroke-width:0.25px;}.cls-20{stroke-width:0.5px;}.cls-21{font-size:15px;font-family:TimesNewRomanPSMT, Times New Roman;letter-spacing:-0.08em;}</style></defs><g id="Layer_6" data-name="Layer 6"><circle class="cls-1" cx="273.07" cy="280.1" r="272.07"/><text class="cls-2" transform="translate(201.33 535.29) rotate(11.32)">2</text><text class="cls-2" transform="matrix(1, 0.05, -0.05, 1, 240.36, 542.92)">0</text><text class="cls-2" transform="translate(280.02 544.74) rotate(-5.42)">2</text><text class="cls-2" transform="matrix(0.97, -0.24, 0.24, 0.97, 319.5, 540.84)">1</text><text class="cls-3" transform="translate(111.11 135.58)">U<tspan class="cls-4" x="90.1" y="0">T</tspan><tspan x="158" y="0">AH</tspan></text></g><g id="Layer_5" data-name="Layer 5"><path class="cls-5" d="M349,297.21c.48.3.94.61,1.41.92,31.78,21,43.39,50.44,25.94,65.81S319,374.76,287.24,353.78a100.06,100.06,0,0,1-20.09-17.2,91,91,0,0,1-9.07,9.18c-26.73,23.55-65.2,31.54-85.95,17.84S156.26,319.73,183,296.2a97.83,97.83,0,0,1,10.58-8.13A199.72,199.72,0,0,1,161.32,266c-43.59-36.69-57.63-81-31.32-98.87s83-2.72,126.58,34a174.27,174.27,0,0,1,19.54,19.13,166.38,166.38,0,0,1,17.67-16.54c43.24-35.06,99.77-48.17,126.26-29.27S433,237,389.72,272.12A186,186,0,0,1,349,297.21Z" transform="translate(1 8.03)"/><line class="cls-6" x1="250.88" y1="419.26" x2="250.88" y2="467.79"/><line class="cls-6" x1="293.3" y1="419.26" x2="293.3" y2="467.79"/><ellipse class="cls-7" cx="241.85" cy="467.79" rx="19.46" ry="10.91"/><ellipse class="cls-7" cx="302.65" cy="467.79" rx="19.46" ry="10.91"/></g><g id="Layer_1" data-name="Layer 1"><path class="cls-8" d="M216.74,151.3s19.7-17.93,27.21,29.28" transform="translate(1 8.03)"/><path class="cls-8" d="M329.78,155.83s-11.16-40.1-23.86,28.53" transform="translate(1 8.03)"/><path class="cls-7" d="M344.63,322.65c-70.11,63-145,0-145,0,1.07-3.12,2.33-6.26,3.75-9.37a112.92,112.92,0,0,1,13.33-22s53.74,49.53,110.8,0A110.7,110.7,0,0,1,344.63,322.65Z" transform="translate(1 8.03)"/><path class="cls-7" d="M344.75,368.79c-10.58,25.71-39.09,45.44-72.6,45.44-33.68,0-62.3-19.92-72.76-45.79C199.39,368.44,269,413.52,344.75,368.79Z" transform="translate(1 8.03)"/><path class="cls-9" d="M349.14,347.06a57,57,0,0,1-4.39,21.73c-75.71,44.73-145.36-.35-145.36-.35a56.92,56.92,0,0,1-4.24-21.38,76,76,0,0,1,4.51-24.41s74.86,63,145,0A76,76,0,0,1,349.14,347.06Z" transform="translate(1 8.03)"/><path class="cls-9" d="M340.85,226.5c-1.1-19.69-14.66-36.69-34.26-45.63a78,78,0,0,0-62.64-.29c-20.83,9.24-35,27.51-35,48.54,0,17.92,10.29,33.82,26.21,43.86a77,77,0,0,0,76.42,1.87c17.7-9.86,29.36-26.66,29.36-45.73C340.93,228.24,340.9,227.37,340.85,226.5ZM287,224.18a12.3,12.3,0,0,1-10.86-6.54,15.4,15.4,0,1,1,.21-11.91A12.3,12.3,0,1,1,287,224.18Z" transform="translate(1 8.03)"/><path class="cls-9" d="M299.33,211.88a12.3,12.3,0,0,1-23.17,5.76,15.4,15.4,0,1,1,.21-11.91,12.31,12.31,0,0,1,23,6.15Z" transform="translate(1 8.03)"/><path class="cls-10" d="M348.67,348.2l9.79-28.33a7.15,7.15,0,0,0-2.71-8.23l-34.64-20.37" transform="translate(1 8.03)"/><path class="cls-11" d="M352.81,379m-15.69-10.41c-.5,0-1,.05-1.56,0A4.14,4.14,0,0,1,332,365.9a4,4,0,0,1,0-2.76,4.67,4.67,0,0,1,1.11-1.73c.11-.11.1-.18,0-.31-.27-.34-.53-.68-.77-1a6.38,6.38,0,0,1-.94-2,5.76,5.76,0,0,1,0-3.19,6.67,6.67,0,0,1,1.22-2.42,20.2,20.2,0,0,1,1.38-1.54,13.46,13.46,0,0,1,2-1.63,15.82,15.82,0,0,1,3.08-1.61c.71-.26,1.45-.48,2.17-.72l0,0a.92.92,0,0,0,0-.16,2.4,2.4,0,0,1,.64-1.55,3.15,3.15,0,0,1,1.08-.74,5.57,5.57,0,0,1,3-.4,16.15,16.15,0,0,1,3.53.94,17.6,17.6,0,0,1,2.6,1.22,7.35,7.35,0,0,1,1.69,1.29,5.87,5.87,0,0,1,1.09,1.58,2.32,2.32,0,0,1,.2,1.78,2.27,2.27,0,0,1-.81,1.07,1.43,1.43,0,0,1,.12.21,9.6,9.6,0,0,1,.54,1.12c.27.76.54,1.52.74,2.29a12.5,12.5,0,0,1,.33,3.22,16.92,16.92,0,0,1-.32,2.84,15,15,0,0,1-1.29,3.79A19.62,19.62,0,0,1,353,368a14.12,14.12,0,0,1-1.76,2.24,6.82,6.82,0,0,1-2.85,1.87,4.06,4.06,0,0,1-2.39,0c-.27-.08-.54-.22-.81-.33a.23.23,0,0,0-.18,0,3.8,3.8,0,0,1-1.88.93,4.91,4.91,0,0,1-2.78-.29,5.78,5.78,0,0,1-1.9-1.22,3.9,3.9,0,0,1-1.05-1.5A10.87,10.87,0,0,1,337.12,368.58Z" transform="translate(1 8.03)"/><path class="cls-12" d="M337.12,368.58a10.87,10.87,0,0,0,.3,1.15,3.9,3.9,0,0,0,1.05,1.5,5.78,5.78,0,0,0,1.9,1.22,4.91,4.91,0,0,0,2.78.29,3.8,3.8,0,0,0,1.88-.93.23.23,0,0,1,.18,0c.27.11.54.25.81.33a4.06,4.06,0,0,0,2.39,0,6.82,6.82,0,0,0,2.85-1.87A14.12,14.12,0,0,0,353,368a19.62,19.62,0,0,0,1.42-2.48,15,15,0,0,0,1.29-3.79,16.92,16.92,0,0,0,.32-2.84,12.5,12.5,0,0,0-.33-3.22c-.2-.77-.47-1.53-.74-2.29a9.6,9.6,0,0,0-.54-1.12,1.43,1.43,0,0,0-.12-.21,2.27,2.27,0,0,0,.81-1.07,2.32,2.32,0,0,0-.2-1.78,5.87,5.87,0,0,0-1.09-1.58,7.35,7.35,0,0,0-1.69-1.29,17.6,17.6,0,0,0-2.6-1.22,16.15,16.15,0,0,0-3.53-.94,5.57,5.57,0,0,0-3,.4,3.15,3.15,0,0,0-1.08.74,2.4,2.4,0,0,0-.64,1.55.92.92,0,0,1,0,.16l0,0c-.72.24-1.46.46-2.17.72a15.82,15.82,0,0,0-3.08,1.61,13.46,13.46,0,0,0-2,1.63,20.2,20.2,0,0,0-1.38,1.54,6.67,6.67,0,0,0-1.22,2.42,5.76,5.76,0,0,0,0,3.19,6.38,6.38,0,0,0,.94,2c.24.36.5.7.77,1,.1.13.11.2,0,.31a4.67,4.67,0,0,0-1.11,1.73,4,4,0,0,0,0,2.76,4.14,4.14,0,0,0,3.61,2.71C336.09,368.63,336.62,368.59,337.12,368.58Zm4.17-5.11,0,0-.11.1c-1,1.08-1.93,2.14-3,3.14a2.94,2.94,0,0,1-2,.91,3.08,3.08,0,0,1-3.36-2.82,3.41,3.41,0,0,1,1.09-2.68,4.22,4.22,0,0,0,.58-.62,16,16,0,0,0,.91-1.49,5.67,5.67,0,0,0,.78-2.93,15,15,0,0,0-.26-1.87c-.08-.47-.2-.95-.3-1.42h-.06a9.32,9.32,0,0,1-1.67,6.67,7.17,7.17,0,0,1-1.41-2.34,5.11,5.11,0,0,1,.52-4.2,9.66,9.66,0,0,1,2.35-2.71,15.08,15.08,0,0,1,6-3.1,8.65,8.65,0,0,1,4.17-.1,20.2,20.2,0,0,1,4.05,1.46,14.22,14.22,0,0,1,2.49,1.48,4.53,4.53,0,0,1,1.11,1.16,13,13,0,0,1,1.23,10.48,17.53,17.53,0,0,1-2.84,5.64,9.76,9.76,0,0,1-2.28,2.3,3.79,3.79,0,0,1-2,.74,2.72,2.72,0,0,1-1.49-.34,13,13,0,0,0,2.17-4.38,4.88,4.88,0,0,0-.47.55c-.93,1.17-1.87,2.35-2.79,3.53a2.93,2.93,0,0,1-2.56,1.19,4.5,4.5,0,0,1-2.72-1.1,3.11,3.11,0,0,1-1.07-1.52,1.5,1.5,0,0,1,.35-1.56,11.14,11.14,0,0,0,2.48-3.83C341.2,363.68,341.25,363.57,341.29,363.47Zm12.48-12.4-.09-.06a9.7,9.7,0,0,0-2.67-2,22.87,22.87,0,0,0-4.34-1.81,9.7,9.7,0,0,0-4.1-.41h-.18c0-.12,0-.22.07-.32a1.62,1.62,0,0,1,.76-.85,4,4,0,0,1,2.51-.46,17.68,17.68,0,0,1,2.25.48,15.77,15.77,0,0,1,4,1.78,5.1,5.1,0,0,1,2,2.24,1.78,1.78,0,0,1,.14.5A1,1,0,0,1,353.77,351.07Z" transform="translate(1 8.03)"/><path class="cls-11" d="M341.29,363.47c0,.1-.09.21-.12.31a11.14,11.14,0,0,1-2.48,3.83,1.5,1.5,0,0,0-.35,1.56,3.11,3.11,0,0,0,1.07,1.52,4.5,4.5,0,0,0,2.72,1.1,2.93,2.93,0,0,0,2.56-1.19c.92-1.18,1.86-2.36,2.79-3.53a4.88,4.88,0,0,1,.47-.55,13,13,0,0,1-2.17,4.38,2.72,2.72,0,0,0,1.49.34,3.79,3.79,0,0,0,2-.74,9.76,9.76,0,0,0,2.28-2.3,17.53,17.53,0,0,0,2.84-5.64,13,13,0,0,0-1.23-10.48,4.53,4.53,0,0,0-1.11-1.16,14.22,14.22,0,0,0-2.49-1.48,20.2,20.2,0,0,0-4.05-1.46,8.65,8.65,0,0,0-4.17.1,15.08,15.08,0,0,0-6,3.1,9.66,9.66,0,0,0-2.35,2.71,5.11,5.11,0,0,0-.52,4.2,7.17,7.17,0,0,0,1.41,2.34,9.32,9.32,0,0,0,1.67-6.67h.06c.1.47.22,1,.3,1.42a15,15,0,0,1,.26,1.87,5.67,5.67,0,0,1-.78,2.93,16,16,0,0,1-.91,1.49,4.22,4.22,0,0,1-.58.62,3.41,3.41,0,0,0-1.09,2.68,3.08,3.08,0,0,0,3.36,2.82,2.94,2.94,0,0,0,2-.91c1-1,2-2.06,3-3.14l.11-.1Zm6.41-8.86-.06,0c-.18.47-.37.94-.55,1.4l-.56,1.32a.55.55,0,1,1-1-.43l.21-.5c.48-1.19,1-2.38,1.44-3.58.21-.56.37-1.15.56-1.72a.55.55,0,1,1,1,.37C348.41,352.5,348.06,353.55,347.7,354.61Zm2.7,2.59a.56.56,0,0,1-.67.32.54.54,0,0,1-.4-.62c.09-.44.19-.87.28-1.3a16.61,16.61,0,0,0,.33-3.16.51.51,0,0,1,.56-.54.56.56,0,0,1,.53.62c0,.76-.07,1.53-.17,2.28S350.56,356.4,350.4,357.2Zm-4.41-7a26.93,26.93,0,0,1-1.84,3.31,3.83,3.83,0,0,1-.28.42.55.55,0,0,1-.9-.56,2.12,2.12,0,0,1,.11-.21c.47-.81,1-1.62,1.42-2.44.22-.37.38-.76.58-1.15a.47.47,0,0,1,.48-.27.55.55,0,0,1,.49.29A.61.61,0,0,1,346,350.18Z" transform="translate(1 8.03)"/><path d="M347.7,354.61c.36-1.06.71-2.11,1.06-3.17a.55.55,0,1,0-1-.37c-.19.57-.35,1.16-.56,1.72-.47,1.2-1,2.39-1.44,3.58l-.21.5a.55.55,0,1,0,1,.43l.56-1.32c.18-.46.37-.93.55-1.4Z" transform="translate(1 8.03)"/><path d="M350.4,357.2c.16-.8.35-1.59.46-2.4s.12-1.52.17-2.28a.56.56,0,0,0-.53-.62.51.51,0,0,0-.56.54,16.61,16.61,0,0,1-.33,3.16c-.09.43-.19.86-.28,1.3a.54.54,0,0,0,.4.62A.56.56,0,0,0,350.4,357.2Z" transform="translate(1 8.03)"/><path d="M346,350.18a.61.61,0,0,0,.06-.61.55.55,0,0,0-.49-.29.47.47,0,0,0-.48.27c-.2.39-.36.78-.58,1.15-.46.82-.95,1.63-1.42,2.44a2.12,2.12,0,0,0-.11.21.55.55,0,0,0,.9.56,3.83,3.83,0,0,0,.28-.42A26.93,26.93,0,0,0,346,350.18Z" transform="translate(1 8.03)"/><path class="cls-11" d="M353.77,351.07a1,1,0,0,0,.36-.9,1.78,1.78,0,0,0-.14-.5,5.1,5.1,0,0,0-2-2.24,15.77,15.77,0,0,0-4-1.78,17.68,17.68,0,0,0-2.25-.48,4,4,0,0,0-2.51.46,1.62,1.62,0,0,0-.76.85c0,.1,0,.2-.07.32h.18a9.7,9.7,0,0,1,4.1.41A22.87,22.87,0,0,1,351,349a9.7,9.7,0,0,1,2.67,2Z" transform="translate(1 8.03)"/><path class="cls-9" d="M327.54,291.27c-57.06,49.53-110.8,0-110.8,0A96.31,96.31,0,0,1,235.15,273a74.59,74.59,0,0,0,39.78,11.11,75.39,75.39,0,0,0,36.65-9.24A98.15,98.15,0,0,1,327.54,291.27Z" transform="translate(1 8.03)"/><path class="cls-10" d="M216.22,297.52l-33.5.54a22.67,22.67,0,0,1-13.47-7.84l-19.51-23.49" transform="translate(1 8.03)"/><path class="cls-8" d="M340.93,226.61l-.08-.1" transform="translate(1 8.03)"/><path class="cls-13" d="M277.46,211.43a15.39,15.39,0,1,1-1.09-5.7A15.31,15.31,0,0,1,277.46,211.43Z" transform="translate(1 8.03)"/><path class="cls-13" d="M299.33,211.88a12.3,12.3,0,0,1-23.17,5.76,12.14,12.14,0,0,1-1.43-5.76,12.3,12.3,0,1,1,24.6,0Z" transform="translate(1 8.03)"/><path class="cls-8" d="M285.85,245.85c3.51,4,3.38,9.85-.28,13.07s-15.7.51-20.31-2c-7.92-4.35-1.2-12.82.28-13.07" transform="translate(1 8.03)"/><circle class="cls-7" cx="217.74" cy="158.85" r="3.14"/><circle class="cls-7" cx="330.78" cy="163.07" r="3.14"/><circle class="cls-7" cx="262.47" cy="219.91" r="3.14"/><circle class="cls-7" cx="288.03" cy="219.91" r="3.14"/></g><g id="Layer_2" data-name="Layer 2"><g id="Layer_3" data-name="Layer 3"><path class="cls-13" d="M153.72,258.25s4.51,1.07,1.3,4.08a77.37,77.37,0,0,1-6.49,5.84c-2.15,1.8-3.23,2.58-5.09,2.24s-1.86-2.16-1.76-3.09" transform="translate(1 8.03)"/><line class="cls-14" x1="142.76" y1="302.32" x2="142.62" y2="302.2"/><polyline class="cls-15" points="144.12 287.01 147.71 281.9 125.73 266.42 121.7 271.2"/><path class="cls-16" d="M160.3,196.12l32.69,23a1.16,1.16,0,0,1,.28,1.59l-1.45,2.12L203,230.75a3.47,3.47,0,0,1,.7,5c-5.12,6.48-18.67,21.18-34.09,17.75-19.64-4.36-19.83.72-22.25,4.2s-7.72,11.24-3.7,14.07l-14.92-10.51c4,2.83,9.31-4.92,11.68-8.45s7-5.48-3.92-22.64c-8.56-13.47.24-31.52,4.42-38.66a3.33,3.33,0,0,1,4.81-1.07l11.2,7.89,1.45-2.13a1.11,1.11,0,0,1,1.56-.29l32.69,23" transform="translate(1 8.03)"/><path class="cls-17" d="M142.07,230.05c-7.77-13.83-.9-28.61,1.66-33.22a1.51,1.51,0,0,1,2.2-.52L154,202S142.35,220.31,142.07,230.05Z" transform="translate(1 8.03)"/><path class="cls-17" d="M189.88,226.14s-12.78,17.48-21.66,21.16c15.47,2.56,26.69-9.16,30.05-13.21a1.57,1.57,0,0,0-.3-2.28Z" transform="translate(1 8.03)"/><polygon class="cls-18" points="143.12 307.86 102.45 279.2 105.44 276.21 107.84 277.7 117.01 267.9 149.02 290.46 142.76 302.32 144.83 303.97 143.12 307.86"/><path class="cls-11" d="M138.92,257.67a2.61,2.61,0,0,1,.78.62c.07.08.47.74.58.75-.07,0,.45-.66.36-.72s-.49.14-.56.16a2.34,2.34,0,0,0-1.1.92,1.51,1.51,0,0,0,.9,2.2c1.66.48,2.91-1.06,3.3-2.5a1.5,1.5,0,0,0-2.89-.8,3.57,3.57,0,0,0-.14.38c-.05.42-.81-.36.53,0l.89,2.2.1-.13-.54.54c.15-.12.25-.07.53-.16a2.35,2.35,0,0,0,1-.62,2.45,2.45,0,0,0,.48-2.37,5.86,5.86,0,0,0-2.71-3.09c-1.72-.88-3.24,1.71-1.52,2.59Z" transform="translate(1 8.03)"/><path class="cls-11" d="M136.63,263.63q.15.09,0,0a.61.61,0,0,1-.23-.25c.14.21-.1-.34,0-.08l-.06-.4a.89.89,0,0,1,0,.23l0-.4c0,.12,0,.1,0,0a.61.61,0,0,1,.19-.29l0,.06a.77.77,0,0,1,.4-.23,1.67,1.67,0,0,0-.9.69,1.61,1.61,0,0,0-.15,1.16,1.5,1.5,0,0,0,.69.89,1.43,1.43,0,0,0,1.16.15,2.37,2.37,0,0,0,1-.66,2.32,2.32,0,0,0,.56-1.38,2.26,2.26,0,0,0-1.13-2,1.5,1.5,0,0,0-1.51,2.6Z" transform="translate(1 8.03)"/><path class="cls-13" d="M137.19,265.34c-7.11,0-8.42-9.69-8-10.94.52-1.67.28-1.78,3.51-4.88a59.13,59.13,0,0,1,5.08-6.16c2.54-2.52,5.86-1.69,9.33,1.57,0,0,2.13,2.21,2.15,2.23,3.88,4,3.19,5.25,3.19,5.25-.79,1.27-2.47,1.06-3.49,1.57a1.52,1.52,0,0,1-1.77-.26l-5-4.95" transform="translate(1 8.03)"/><path class="cls-14" d="M147.63,254s-3.07,3.09-3.45,4.25a.13.13,0,0,1-.2.05c-2.43-2.39-5.3-6-5.3-6" transform="translate(1 8.03)"/><path class="cls-14" d="M144,258.33a4.88,4.88,0,0,1-4.58,4c-3.33-3.69-5-5.85-5-5.85" transform="translate(1 8.03)"/><path class="cls-14" d="M139.4,262.34s.56,3.81-3.82,2.79" transform="translate(1 8.03)"/><rect class="cls-12" x="131.89" y="249.74" width="1.41" height="3.19" rx="0.58" transform="translate(416.45 232.15) rotate(112.32)"/><rect class="cls-12" x="135.23" y="246.12" width="1.41" height="3.61" rx="0.58" transform="translate(418.2 284.93) rotate(124.62)"/><rect class="cls-12" x="137.57" y="243.21" width="1.41" height="3.19" rx="0.58" transform="translate(398.35 362.06) rotate(142.32)"/><path class="cls-11" d="M135.28,253.12a1.58,1.58,0,0,0-1.32.66,2.73,2.73,0,0,0-.32.61,1.59,1.59,0,0,0-.15,1.15,1.49,1.49,0,0,0,.69.9,1.53,1.53,0,0,0,2-.54l0,0-.24.3,0,0-.66.38,0,0-.4.06h.06l-.4-.05h0l-.36-.15,0,0-.31-.24,0,0-.24-.3,0,.05-.2-.76v.05l.06-.39v0a1.54,1.54,0,0,0,.38,1.46,1.49,1.49,0,0,0,1.46.38h.06l-.4.05h.06l-.4-.05H135l-.36-.15.06,0-.31-.24,0,.05-.23-.31a1.67,1.67,0,0,0,1,.77,2.17,2.17,0,0,0,.95,0l-.39,0h.05l-.39,0,.05,0-.36-.16.06,0-.31-.23a.24.24,0,0,1,.09.08l-.24-.3,0,0-.15-.36V256a1.49,1.49,0,0,0,1,1,1.54,1.54,0,0,0,1.46-.38,2.2,2.2,0,0,0,.33-.41,1.49,1.49,0,0,0-.24-1.81,1.87,1.87,0,0,0-.85-.49,1.5,1.5,0,0,0-.8,2.89l.08,0-.36-.15.06,0-.3-.23,0,.05-.23-1.82,0,.06.23-.31-.05.05,2.51.66a1.79,1.79,0,0,0-2.25-1.26l.4,0h0l1.06.44,0,0,.24.3a1.77,1.77,0,0,0-2-.81l1.84,1.85a1.8,1.8,0,0,0-.15-1.27,1.65,1.65,0,0,0-.81-.73,1.69,1.69,0,0,0-2.1.71l2.59,1.51c.07-.15.13-.31.21-.45l-.24.3,0,0-.3.23,0,0-.75.21h.05a1.47,1.47,0,0,0,1.06-.44,1.5,1.5,0,0,0,.44-1.06,1.54,1.54,0,0,0-.44-1.06,1.71,1.71,0,0,0-1.06-.44Z" transform="translate(1 8.03)"/><path class="cls-11" d="M131.23,257.77l1.25.3a1.52,1.52,0,0,0,1.9-1.45,1.57,1.57,0,0,0,0-.48c-.19-.41-.21-.47-.07-.18l-.15,1.16c-.29.28-.31.35-.06.22a1.46,1.46,0,0,0,.74-1.29l0,.19-.69.9.08-.05-.76.21a3.61,3.61,0,0,0,.72-.12c-.11,0,.88-.35.42-.23h-.8l.12,0a1.52,1.52,0,0,0,1.77-.87,1.49,1.49,0,0,0-.61-1.87,2,2,0,0,0-2,.08,2.68,2.68,0,0,0-1.13,1.62,1.5,1.5,0,0,0,2.9.8c0,.15-1.44.22-.64.25l-.75-.21.1.05,1.16-2.74a2.16,2.16,0,0,0-1.21.09s-.32.11-.34.17,0,.07.17,0,.29-.06.12,0a1.66,1.66,0,0,0-1.6,1.75l.74-1.3a1.77,1.77,0,0,0-.94,2.55l-.21-.76v.08l1.9-1.44-1.25-.3a1.5,1.5,0,0,0-.8,2.89Z" transform="translate(1 8.03)"/><path class="cls-11" d="M131.55,257a3.44,3.44,0,0,0,.49,1.59,1.61,1.61,0,0,0,.89.69,1.56,1.56,0,0,0,1.16-.15,1.53,1.53,0,0,0,.54-2.05.31.31,0,0,1,0-.1l.15.36a.66.66,0,0,1-.06-.2l.05.4a.74.74,0,0,1,0-.21l-.06.4s0-.07,0-.1a1.49,1.49,0,0,0-2.2-1.69,1.47,1.47,0,0,0-.69.89,2.4,2.4,0,0,0,.25,1.76l2.59-1.51c-.06-.1-.11-.2-.16-.3l.15.36a2.09,2.09,0,0,1-.11-.43l.05.4a.37.37,0,0,1,0-.11,1.63,1.63,0,0,0-.44-1.06,1.56,1.56,0,0,0-1.06-.44A1.54,1.54,0,0,0,132,256a1.44,1.44,0,0,0-.44,1.06Z" transform="translate(1 8.03)"/><path class="cls-11" d="M133.34,258.16a1.5,1.5,0,0,0,0-3,1.5,1.5,0,0,0,0,3Z" transform="translate(1 8.03)"/><path class="cls-11" d="M133.49,257.85a1.5,1.5,0,0,0,0-3,1.5,1.5,0,0,0,0,3Z" transform="translate(1 8.03)"/><path class="cls-11" d="M136.21,257.26a3.85,3.85,0,0,0,2.76,3.42,1.51,1.51,0,0,0,1.85-1,1.54,1.54,0,0,0-1-1.85c-.16-.05-.1,0,0,0l-.22-.11c-.14-.07-.08-.07,0,0s-.25-.26-.14-.12-.06-.1-.07-.13l-.14-.22-.06-.11c0-.07,0-.07,0,0s0,.42,0,.11a1.52,1.52,0,0,0-1.5-1.5,1.54,1.54,0,0,0-1.5,1.5Z" transform="translate(1 8.03)"/><path class="cls-11" d="M138.73,256.77l-.09-.06.3.23a1.14,1.14,0,0,1-.19-.19l.24.3a1,1,0,0,1-.14-.24l.15.36a3.1,3.1,0,0,0-.31-.78,1.53,1.53,0,0,0-2.82.65,2.43,2.43,0,0,0,0,.71,1.5,1.5,0,0,0,1.85,1.05,1.5,1.5,0,0,0,.89-.69l.16-.36a1.51,1.51,0,0,0,0-.79v-.06l.05.4v-.06l-.06.4,0-.05-.15.36,0-.05H136.1a.21.21,0,0,1,.06.1l-.15-.36a4,4,0,0,0,.34.86,2.75,2.75,0,0,0,.87.86,1.51,1.51,0,0,0,2.05-.53,1.54,1.54,0,0,0-.54-2.06Z" transform="translate(1 8.03)"/><path class="cls-11" d="M138.41,256.18l0-.05.15.36a1.89,1.89,0,0,1-.09-.34l.05.4a2,2,0,0,1,0-.35,1.46,1.46,0,0,0-.44-1.06,1.52,1.52,0,0,0-1.06-.44,1.46,1.46,0,0,0-1.06.44l-.23.3a1.45,1.45,0,0,0-.21.76,3,3,0,0,0,.32,1.49,1.5,1.5,0,0,0,2.05.54,1.47,1.47,0,0,0,.69-.89l.06-.4a1.45,1.45,0,0,0-.21-.76Z" transform="translate(1 8.03)"/><path class="cls-11" d="M135.46,256.19a3.14,3.14,0,0,0,1.18,2.51,1.52,1.52,0,0,0,2.12,0,1.54,1.54,0,0,0,0-2.12l-.27-.27-.12-.14c.13.17.16.21.1.11-.17-.33,0,.27,0,0s0-.12,0,.12a1.28,1.28,0,0,1,0-.19,1.47,1.47,0,0,0-.44-1.06,1.54,1.54,0,0,0-1.06-.44,1.56,1.56,0,0,0-1.06.44,1.82,1.82,0,0,0-.44,1.06Z" transform="translate(1 8.03)"/><path class="cls-11" d="M137.23,259.49a3.78,3.78,0,0,0,1.21,1.5,3.84,3.84,0,0,0,1,.56,2,2,0,0,0,1.55-.14,1.52,1.52,0,0,0,.69-.9,1.5,1.5,0,0,0-2.2-1.69l-.09,0,.76-.2c-.2,0,.07,0,.13,0,.31.08.15.06,0,0s-.23-.16-.07,0l-.09-.08a1.14,1.14,0,0,0-.14-.16s.16.26,0,.06-.18-.31-.25-.47a1.5,1.5,0,0,0-.89-.69,1.5,1.5,0,0,0-1.7,2.2Z" transform="translate(1 8.03)"/><path class="cls-11" d="M138.62,260.57a1.5,1.5,0,0,0,0-3,1.5,1.5,0,0,0,0,3Z" transform="translate(1 8.03)"/><path class="cls-11" d="M139.54,257.94l0,0a1.14,1.14,0,0,0-.48-.31,1.36,1.36,0,0,0-1.16,0,1,1,0,0,0-.48.31l-.24.3a1.57,1.57,0,0,0-.2.76l0,.4a1.49,1.49,0,0,0,.39.66l0,0a1.14,1.14,0,0,0,.48.31,1.08,1.08,0,0,0,.58.13,1.06,1.06,0,0,0,.58-.13,1,1,0,0,0,.48-.31l.24-.3a1.54,1.54,0,0,0,.2-.76l0-.4a1.49,1.49,0,0,0-.39-.66Z" transform="translate(1 8.03)"/><path class="cls-11" d="M138.23,260.18a1.5,1.5,0,0,0,0-3,1.5,1.5,0,0,0,0,3Z" transform="translate(1 8.03)"/><path class="cls-11" d="M138.06,260.06a1.5,1.5,0,0,0,0-3,1.5,1.5,0,0,0,0,3Z" transform="translate(1 8.03)"/><path class="cls-11" d="M137.69,259.6a1.5,1.5,0,0,0,0-3,1.5,1.5,0,0,0,0,3Z" transform="translate(1 8.03)"/><path class="cls-11" d="M135.58,256.8a3.33,3.33,0,0,0,.56,1.67,15.44,15.44,0,0,0,1,1.26,1.51,1.51,0,0,0,2.12,0,1.55,1.55,0,0,0,0-2.13l-.64-.74c-.07-.08-.06-.07,0,0l-.13-.21c.07.19.08.2,0,.05s0-.15,0,.06a1.5,1.5,0,0,0-3,0Z" transform="translate(1 8.03)"/><path class="cls-11" d="M138.51,259.66l0,0,.39-.66c.3-.28.2-.16.05-.08l-.17.09.75-.21h0l1.06.44,0,0,.38.66a2,2,0,0,0-.54-.93,2.75,2.75,0,0,0-1-.55l.36.15a.52.52,0,0,1-.13-.06c.35.45.47.56.37.34l.15.36v-.06l0,.4v-.06l0,.4v-.06l-.15.36-.16.22-1.06.44h0l-.76-.2h0l-.69-1.69v0a1.51,1.51,0,0,0,1.05,1.84,1.53,1.53,0,0,0,1.85-1v0a1.54,1.54,0,0,0-.69-1.7,1.57,1.57,0,0,0-1.87.23,1.71,1.71,0,0,0-.53,1.26,1.85,1.85,0,0,0,.57,1.28,3.18,3.18,0,0,0,1,.54l-.36-.15.13.06a1,1,0,0,1-.36-.34l-.16-.36a1.88,1.88,0,0,0,.62.94,1.57,1.57,0,0,0,1.7.12l.32-.17a1.77,1.77,0,0,0,.41-.31,2.32,2.32,0,0,0,.41-.72,1.5,1.5,0,0,0-1-1.84,1.51,1.51,0,0,0-1.16.15,1.73,1.73,0,0,0-.69.9Z" transform="translate(1 8.03)"/><path class="cls-11" d="M139.21,261.64a1.5,1.5,0,0,0,0-3,1.5,1.5,0,0,0,0,3Z" transform="translate(1 8.03)"/><path class="cls-19" d="M135.6,257.55a14.86,14.86,0,0,1,.73,1.5,8.17,8.17,0,0,0,2,2.26,11.37,11.37,0,0,0,1.93.7" transform="translate(1 8.03)"/><path class="cls-20" d="M135.16,257.34a11,11,0,0,0,3.3,4.11,2.19,2.19,0,0,0,1.45.5" transform="translate(1 8.03)"/><path class="cls-11" d="M139.28,257.92l-.16-.08c-.19-.09.09.1.14.16s0,0,0,0a1.62,1.62,0,0,0-.1-.18,3,3,0,0,0-.42-.52.84.84,0,0,1,.22.44c.05.22,0,0,0-.08a1.46,1.46,0,0,0-.43-1.06,1.51,1.51,0,0,0-2.13,0,1.84,1.84,0,0,0-.44,1.06,2.18,2.18,0,0,0,.18,1,2.33,2.33,0,0,0,.4.65c0,.05.13.2.18.21-.12-.17-.15-.21-.1-.12a.61.61,0,0,0,0,.12,2,2,0,0,0,.32.44,2.48,2.48,0,0,0,.74.54,1.5,1.5,0,0,0,1.52-2.59Z" transform="translate(1 8.03)"/><path class="cls-11" d="M133.21,257.32c.77.48,1.16,1.47,1.76,2.13s1.41,1,1.91,1.64a1.56,1.56,0,0,0,2.06.54,1.5,1.5,0,0,0,.53-2.05c-.68-.9-1.64-1.42-2.38-2.25a11.28,11.28,0,0,0-2.37-2.6c-1.64-1-3.14,1.56-1.51,2.59Z" transform="translate(1 8.03)"/><path class="cls-12" d="M136.38,258.55a4.31,4.31,0,0,0,.47.5l.86.92a8.3,8.3,0,0,0,.91.87c.15.11.51.43.69.58a1.91,1.91,0,0,0,1.11.4l-.69.95a6.8,6.8,0,0,1-1-.72c-.16-.14-.32-.27-.46-.37a11.22,11.22,0,0,1-1.15-1l-.95-.92a10.46,10.46,0,0,1-.66-1c-.91-1.54-.95-2.31-.63-1.88" transform="translate(1 8.03)"/><path class="cls-19" d="M139.11,263a1,1,0,0,0-.29-.72,7.38,7.38,0,0,0-.9-1" transform="translate(1 8.03)"/><path class="cls-14" d="M142.78,256.77l1.2.54" transform="translate(1 8.03)"/><path class="cls-12" d="M150.58,253.17a4.29,4.29,0,0,1,.74-.43.85.85,0,0,0,.53-.91,2.49,2.49,0,0,0-.31-1c-.16-.32-.32-.58-.34-.65s-.38-.56-.9-1.26c-.3-.41-.07-.37-.49-.68s-.41-.5-.66-.71l.86.35.85.36a6.28,6.28,0,0,1,.8.83,7.59,7.59,0,0,1,.62,1l.11.24a1.87,1.87,0,0,1,.08.28,1.72,1.72,0,0,1,0,.45c0,.15-.05.29-.08.42s-.08.35-.13.51l-.15.51c0,.08-.3.22-.62.36A9.51,9.51,0,0,1,150.58,253.17Z" transform="translate(1 8.03)"/><path class="cls-11" d="M140.66,251.8a6.34,6.34,0,0,1,1.28,1l.88.68c.64.47.05.12.18-.22l.39-.66-.12.13c-1.29,1.44.83,3.57,2.12,2.13a2.26,2.26,0,0,0,.56-2.13,3.17,3.17,0,0,0-1.35-1.65,15.26,15.26,0,0,0-3.14-2.22,1.52,1.52,0,0,0-1.85,1,1.55,1.55,0,0,0,1,1.85Z" transform="translate(1 8.03)"/><path class="cls-11" d="M148.3,249.2c-1.83-1.7-4.13-3-6.7-2.64a1.55,1.55,0,0,0-1.5,1.5,1.52,1.52,0,0,0,1.5,1.5,5.53,5.53,0,0,1,4.58,1.76c1.41,1.31,3.54-.8,2.12-2.12Z" transform="translate(1 8.03)"/><path class="cls-14" d="M146.26,252.83a2.78,2.78,0,0,1,.21,2.3" transform="translate(1 8.03)"/><path class="cls-11" d="M142.25,252.72c-.51,0-.24-.05,0,.16a4.34,4.34,0,0,1,.53.52,3.32,3.32,0,0,0,.53.53c.25.16.07.13.13-.29a1.57,1.57,0,0,0,1.05,1.85,1.53,1.53,0,0,0,1.85-1.05,2.73,2.73,0,0,0-.31-1.92,7.15,7.15,0,0,0-1-1.11,4.31,4.31,0,0,0-2.77-1.69,1.5,1.5,0,0,0,0,3Z" transform="translate(1 8.03)"/><path class="cls-11" d="M143.74,256.42a2.23,2.23,0,0,0,2.74-1.47c.33-1.1,0-2.66-1.34-2.9l1.05,1.84,0-.16a1.67,1.67,0,0,0-.16-1.16,1.5,1.5,0,0,0-.89-.69,1.53,1.53,0,0,0-1.85,1.05l0,.17a1.54,1.54,0,0,0,.15,1.15,1.43,1.43,0,0,0,.89.69,1.07,1.07,0,0,1-.74-1v.1c0,.08,0,.15,0,.22a.54.54,0,0,1,0-.28.79.79,0,0,1,.43-.43.59.59,0,0,1,.32-.06c.26,0,.3,0,.15,0a1.5,1.5,0,1,0-.8,2.89Z" transform="translate(1 8.03)"/><path class="cls-11" d="M145.08,251.38a4.66,4.66,0,0,0-2.5-1.47,1.52,1.52,0,0,0-1.77.87,1.5,1.5,0,0,0,.61,1.87l.66.44a1.51,1.51,0,0,0,2.06-.54,1.54,1.54,0,0,0-.54-2.05l-.66-.44-1.16,2.75a4.54,4.54,0,0,1,.5.12c-.32-.11.08.06.15.1l.16.11h0c.12.12.25.23.36.36a1.5,1.5,0,0,0,2.13-2.12Z" transform="translate(1 8.03)"/><path class="cls-11" d="M144.68,252.42a2.1,2.1,0,0,0,0-.9,2,2,0,0,0-.43-.75,2.77,2.77,0,0,0-.62-.46,2.23,2.23,0,0,0-.86-.35,1.61,1.61,0,0,0-1,.18,1.53,1.53,0,0,0-.56,2.1,1.49,1.49,0,0,0,.89.68,1.5,1.5,0,0,0,1.85-1v0l-.38.66h0l-.66.39h0l-.4.05h0l-.4-.06h0l-.36-.15a3.48,3.48,0,0,1,.48.3l-.3-.24.1.09-.24-.3.05.07-.16-.36,0,0-.06-.4v0l0-.4v0a1.73,1.73,0,0,0,.16,1.16,1.5,1.5,0,0,0,2.05.54,1.45,1.45,0,0,0,.69-.9Z" transform="translate(1 8.03)"/><path class="cls-11" d="M146.5,254a2,2,0,0,0-.5-1.24,3.42,3.42,0,0,0-.58-.49,4.11,4.11,0,0,0-1.12-.53,1.5,1.5,0,0,0-1.84,1,1.53,1.53,0,0,0,1,1.85l.2.08-.35-.16a2.85,2.85,0,0,1,.63.38l-.3-.23a.81.81,0,0,1,.19.18l-.23-.3,0,.05-.15-.35,0,.05-.06-.39V254a1.56,1.56,0,0,0,.44,1.06,1.54,1.54,0,0,0,1.06.44,1.52,1.52,0,0,0,1.5-1.5Z" transform="translate(1 8.03)"/><path class="cls-11" d="M146.39,253a6.12,6.12,0,0,0-3.6-2.53,1.5,1.5,0,1,0-.79,2.89,2.66,2.66,0,0,1,1.09.47,2.7,2.7,0,0,1,.7.69,1.54,1.54,0,0,0,2.06.53,1.51,1.51,0,0,0,.54-2Z" transform="translate(1 8.03)"/><path class="cls-11" d="M146.53,248a5.94,5.94,0,0,0-4.22-1.1,1.5,1.5,0,0,0,0,3,5.91,5.91,0,0,1,1.26,0c.22,0,.43.1.65.16s.4.22.18,0c1.41,1.32,3.54-.8,2.13-2.12Z" transform="translate(1 8.03)"/><path class="cls-11" d="M142.4,253c.24.17-.23-.21,0,.05a3.07,3.07,0,0,1,.25.26,1.5,1.5,0,0,0,2.35-1.82,3.44,3.44,0,0,0-2.52-1.5,1.5,1.5,0,0,0-1.46,2.51,3.8,3.8,0,0,0,1.6.9,1.5,1.5,0,1,0,.8-2.89.7.7,0,0,0-.19-.06c.07,0,.3.15,0,0l-.16-.1c-.16-.09.27.23,0,0l-1.46,2.51.47.08c.05,0,.47.16.25.07s.18.09.17.1c-.18-.14-.21-.16-.09,0-.13-.18-.16-.21-.07-.08l2.36-1.82a4.82,4.82,0,0,0-.91-.77,1.51,1.51,0,0,0-2,.54,1.53,1.53,0,0,0,.54,2Z" transform="translate(1 8.03)"/><path class="cls-11" d="M139.61,252.51a5.5,5.5,0,0,0,3.53,4.21,1.52,1.52,0,0,0,1.85-1.05,1.54,1.54,0,0,0-1.05-1.84,2.61,2.61,0,0,1-1.44-2.12,1.51,1.51,0,0,0-1.84-1.05,1.54,1.54,0,0,0-1,1.85Z" transform="translate(1 8.03)"/><path class="cls-11" d="M141.2,256c-.51-.64-1.57-1.85-1.17-2.77a1.57,1.57,0,0,0-.54-2.06,1.51,1.51,0,0,0-2.05.54c-1.05,2.46.11,4.48,1.64,6.41A1.5,1.5,0,0,0,141.2,256Z" transform="translate(1 8.03)"/><path class="cls-12" d="M144,257a3.78,3.78,0,0,1-2-.81,6.1,6.1,0,0,1-1.87-1.63,1.78,1.78,0,0,1-.28-.59l-.31-1.09a11,11,0,0,0,2.74,2.9,2.74,2.74,0,0,0,2.09.66,4.24,4.24,0,0,0,2.34-1.75l.39.31a4.77,4.77,0,0,1-2.57,1.92A1.88,1.88,0,0,1,144,257Z" transform="translate(1 8.03)"/><path class="cls-13" d="M153.71,252.49s-3.16-1-7.72,2.42c-3.31,2.5-3.55,4.3-3.42,5.1a4.13,4.13,0,0,1,0,.86c-.06.65.4,1.78,4.92.67a14.47,14.47,0,0,0,8.32-5.67,1.53,1.53,0,0,0,.1-1.61A3.88,3.88,0,0,0,153.71,252.49Z" transform="translate(1 8.03)"/></g></g><g id="Layer_4" data-name="Layer 4"><text class="cls-21" transform="matrix(0.57, 0.39, -0.57, 0.82, 150.74, 221.07)">SkillsUSA</text></g></svg>